<?xml version="1.0" encoding="iso-8859-1"?>
<!-- Generator: Adobe Illustrator 19.0.0, SVG Export Plug-In . SVG Version: 6.00 Build 0)  -->
<svg version="1.1" id="Capa_1" xmlns="http://www.w3.org/2000/svg" xmlns:xlink="http://www.w3.org/1999/xlink" x="0px" y="0px"
	 viewBox="0 0 511.999 511.999" style="enable-background:new 0 0 511.999 511.999;" xml:space="preserve">
<g>
	<g>
		<path d="M175.62,60.489c-3.896-3.895-10.211-3.895-14.108,0c-3.895,3.895-3.895,10.212,0,14.107
			c11.682,11.681,18.115,27.213,18.115,43.732s-6.432,32.053-18.114,43.734c-3.895,3.895-3.895,10.212,0,14.107
			c1.948,1.948,4.501,2.922,7.054,2.922c2.553,0,5.105-0.975,7.054-2.922c15.449-15.45,23.959-35.991,23.959-57.84
			S191.07,75.939,175.62,60.489z"/>
	</g>
</g>
<g>
	<g>
		<path d="M55.932,118.331c0-16.519,6.435-32.053,18.116-43.734c3.895-3.895,3.895-10.212,0-14.107
			c-3.894-3.895-10.209-3.895-14.108,0c-15.449,15.45-23.959,35.991-23.959,57.84s8.509,42.39,23.959,57.84
			c1.948,1.948,4.501,2.922,7.054,2.922c2.553,0,5.105-0.975,7.054-2.922c3.895-3.895,3.895-10.212,0-14.107
			C62.365,150.382,55.932,134.85,55.932,118.331z"/>
	</g>
</g>
<g>
	<g>
		<path d="M153.049,83.062c-3.896-3.895-10.211-3.895-14.108,0c-3.895,3.895-3.895,10.212,0,14.107
			c5.653,5.652,8.765,13.167,8.765,21.161s-3.112,15.509-8.765,21.161c-3.894,3.894-3.894,10.212,0.001,14.107
			c1.948,1.948,4.501,2.922,7.054,2.922c2.553,0,5.105-0.974,7.054-2.922c9.42-9.421,14.609-21.946,14.609-35.268
			C167.658,105.007,162.47,92.482,153.049,83.062z"/>
	</g>
</g>
<g>
	<g>
		<path d="M96.62,97.167c3.895-3.895,3.895-10.212,0-14.107c-3.896-3.895-10.211-3.895-14.108,0
			c-19.446,19.447-19.446,51.089,0,70.536c1.949,1.949,4.502,2.923,7.055,2.923c2.553,0,5.105-0.975,7.054-2.922
			c3.895-3.895,3.895-10.212,0-14.107C84.952,127.821,84.952,108.835,96.62,97.167z"/>
	</g>
</g>
<g>
	<g>
		<path d="M117.709,216.017h-0.263c-0.016,0-0.031,0-0.048,0c-5.487,0-9.948,4.435-9.974,9.929
			c-0.026,5.509,4.419,9.996,9.928,10.022h0.357c5.508,0,9.975-4.466,9.975-9.975S123.218,216.017,117.709,216.017z"/>
	</g>
</g>
<g>
	<g>
		<path d="M452.13,60.49c-3.895-3.895-10.21-3.895-14.108,0c-3.895,3.895-3.895,10.212,0,14.107
			c24.115,24.113,24.115,63.351,0.001,87.465c-3.895,3.895-3.895,10.212,0,14.107c1.948,1.948,4.501,2.922,7.054,2.922
			c2.553,0,5.105-0.975,7.054-2.922C484.022,144.276,484.022,92.383,452.13,60.49z"/>
	</g>
</g>
<g>
	<g>
		<path d="M332.443,118.33c0-16.519,6.433-32.051,18.115-43.732c3.895-3.895,3.895-10.212,0-14.107
			c-3.895-3.895-10.21-3.895-14.108,0c-15.449,15.45-23.959,35.991-23.959,57.84s8.509,42.39,23.959,57.84
			c1.948,1.946,4.501,2.92,7.055,2.92c2.554,0,5.105-0.975,7.054-2.922c3.895-3.895,3.895-10.212,0-14.107
			C338.876,150.381,332.443,134.849,332.443,118.33z"/>
	</g>
</g>
<g>
	<g>
		<path d="M429.559,83.062c-3.896-3.895-10.211-3.895-14.108,0c-3.895,3.895-3.895,10.212,0,14.107
			c5.653,5.652,8.765,13.167,8.765,21.161s-3.112,15.509-8.765,21.161c-3.895,3.894-3.895,10.212,0.001,14.107
			c1.948,1.948,4.501,2.922,7.054,2.922c2.553,0,5.105-0.974,7.054-2.922c9.42-9.421,14.609-21.946,14.609-35.268
			C444.167,105.007,438.979,92.482,429.559,83.062z"/>
	</g>
</g>
<g>
	<g>
		<path d="M364.364,118.329c0-7.993,3.112-15.509,8.765-21.161c3.895-3.895,3.895-10.212,0-14.107
			c-3.895-3.895-10.21-3.895-14.108,0c-9.42,9.421-14.609,21.946-14.609,35.268c0.002,13.323,5.19,25.848,14.61,35.269
			c1.948,1.948,4.501,2.922,7.054,2.922c2.553,0,5.105-0.974,7.054-2.922c3.895-3.895,3.895-10.212,0-14.108
			C367.476,133.838,364.364,126.322,364.364,118.329z"/>
	</g>
</g>
<g>
	<g>
		<path d="M175.62,335.899c-3.896-3.894-10.211-3.894-14.107,0.002c-3.895,3.895-3.895,10.212,0,14.107
			c11.682,11.681,18.115,27.213,18.115,43.732s-6.433,32.051-18.115,43.732c-3.895,3.895-3.895,10.212,0,14.107
			c1.948,1.948,4.501,2.922,7.054,2.922c2.553,0,5.105-0.975,7.054-2.922c15.449-15.45,23.959-35.991,23.959-57.84
			C199.579,371.89,191.07,351.349,175.62,335.899z"/>
	</g>
</g>
<g>
	<g>
		<path d="M55.933,393.74c0-16.52,6.433-32.051,18.115-43.732c3.895-3.895,3.895-10.212,0-14.107
			c-3.894-3.895-10.209-3.895-14.108,0c-15.449,15.45-23.959,35.991-23.959,57.84c0,21.849,8.509,42.39,23.959,57.84
			c1.948,1.948,4.501,2.922,7.054,2.922c2.553,0,5.105-0.975,7.054-2.922c3.895-3.895,3.895-10.212,0-14.107
			C62.367,425.792,55.933,410.26,55.933,393.74z"/>
	</g>
</g>
<g>
	<g>
		<path d="M153.05,358.472c-3.896-3.895-10.211-3.895-14.108,0c-3.895,3.895-3.895,10.212,0,14.108
			c5.653,5.652,8.765,13.167,8.765,21.161c0,7.993-3.112,15.509-8.765,21.161c-3.895,3.895-3.895,10.212,0,14.107
			c1.948,1.948,4.501,2.922,7.054,2.922c2.553,0,5.105-0.975,7.054-2.922c9.42-9.421,14.609-21.946,14.609-35.268
			C167.658,380.418,162.47,367.893,153.05,358.472z"/>
	</g>
</g>
<g>
	<g>
		<path d="M96.618,372.578c3.897-3.895,3.897-10.211,0.001-14.106c-3.896-3.895-10.213-3.895-14.108,0
			c-19.446,19.447-19.446,51.089,0,70.536c1.948,1.948,4.501,2.922,7.054,2.922c2.553,0,5.105-0.975,7.054-2.922
			c3.895-3.895,3.895-10.212,0-14.107C84.951,403.233,84.951,384.247,96.618,372.578z"/>
	</g>
</g>
<g>
	<g>
		<path d="M452.13,335.901c-3.895-3.895-10.21-3.895-14.108,0c-3.895,3.895-3.895,10.212,0,14.107
			c24.115,24.113,24.115,63.351,0.001,87.465c-3.895,3.895-3.895,10.212,0,14.107c1.948,1.948,4.501,2.922,7.054,2.922
			c2.553,0,5.105-0.975,7.054-2.922C484.022,419.687,484.022,367.794,452.13,335.901z"/>
	</g>
</g>
<g>
	<g>
		<path d="M332.442,393.742c0-16.519,6.434-32.053,18.116-43.734c3.895-3.895,3.895-10.212,0-14.107s-10.21-3.895-14.108,0
			c-15.449,15.45-23.959,35.991-23.959,57.84s8.509,42.39,23.959,57.84c1.948,1.948,4.501,2.922,7.054,2.922
			c2.553,0,5.105-0.975,7.054-2.922c3.895-3.895,3.895-10.212,0-14.107C338.875,425.793,332.442,410.261,332.442,393.742z"/>
	</g>
</g>
<g>
	<g>
		<path d="M429.559,358.473c-3.896-3.897-10.211-3.897-14.107-0.001c-3.895,3.895-3.895,10.212,0,14.108
			c5.653,5.652,8.765,13.167,8.765,21.161c0,7.993-3.112,15.509-8.765,21.161c-3.895,3.895-3.895,10.212,0,14.107
			c1.948,1.948,4.501,2.922,7.054,2.922c2.553,0,5.105-0.975,7.054-2.922c9.42-9.421,14.609-21.946,14.609-35.268
			C444.167,380.419,438.979,367.893,429.559,358.473z"/>
	</g>
</g>
<g>
	<g>
		<path d="M364.364,393.74c0-7.993,3.112-15.509,8.765-21.161c3.896-3.895,3.896-10.212,0.001-14.107
			c-3.896-3.895-10.211-3.895-14.108,0c-9.42,9.421-14.609,21.946-14.609,35.268c0,13.323,5.188,25.848,14.609,35.268
			c1.948,1.948,4.501,2.922,7.054,2.922c2.553,0,5.105-0.975,7.054-2.922c3.895-3.895,3.895-10.212,0-14.107
			C367.476,409.249,364.364,401.733,364.364,393.74z"/>
	</g>
</g>
<g>
	<g>
		<path d="M490.97,326.577c-13.439-19.309-32.083-34.019-53.92-42.536c-5.138-2.005-10.917,0.537-12.918,5.669
			c-2.002,5.132,0.536,10.916,5.669,12.918c37.815,14.75,62.248,50.513,62.248,91.112c0,53.905-43.855,97.759-97.759,97.759
			c-53.904,0-97.759-43.854-97.759-97.759c0-40.091,25.116-76.746,62.496-91.209c5.137-1.988,7.692-7.765,5.704-12.903
			s-7.764-7.692-12.903-5.704c-7.918,3.063-15.413,6.952-22.402,11.566c-20.362-22.241-20.35-56.672,0.035-78.899
			c19.582,12.926,42.205,19.39,64.828,19.39c30.144,0,60.287-11.474,83.234-34.421c45.894-45.895,45.894-120.571,0-166.466
			c-45.894-45.894-120.571-45.896-166.467,0c-39.787,39.787-45.074,101.201-15.877,146.745c-22.102,20.5-56.459,20.706-78.794,0.592
			c12.457-19.104,19.033-41.206,19.033-64.173c0-64.905-52.805-117.709-117.709-117.709S0,53.352,0,118.258
			c0,24.168,7.272,47.393,21.03,67.164c13.438,19.309,32.083,34.018,53.92,42.536c5.135,2.002,10.917-0.538,12.918-5.669
			c2.002-5.132-0.536-10.916-5.669-12.918c-37.815-14.751-62.248-50.514-62.248-91.113c0-53.905,43.855-97.759,97.759-97.759
			s97.759,43.854,97.759,97.759c0,40.092-25.115,76.747-62.496,91.209c-5.137,1.988-7.692,7.765-5.704,12.903
			c1.53,3.955,5.304,6.379,9.305,6.379c1.197,0,2.415-0.217,3.597-0.675c7.645-2.958,14.89-6.689,21.672-11.096
			c19.893,22.086,19.925,55.942,0.094,78.065c-45.607-29.66-107.413-24.51-147.388,15.464c-45.895,45.895-45.895,120.572,0,166.467
			c22.947,22.947,53.091,34.421,83.234,34.421s60.286-11.474,83.233-34.421c39.97-39.97,45.124-101.769,15.472-147.376
			c22.328-20.015,56.595-19.787,78.667,0.657c-12.165,18.946-18.572,40.796-18.572,63.485c0,64.905,52.805,117.709,117.709,117.709
			s117.709-52.805,117.709-117.709C512,369.573,504.728,346.347,490.97,326.577z M325.165,49.204
			c19.06-19.061,44.088-28.587,69.126-28.587c25.03,0,50.069,9.531,69.125,28.586c38.116,38.116,38.116,100.136,0,138.252
			c-19.06,19.06-44.088,28.589-69.126,28.587c-25.03-0.002-50.069-9.531-69.125-28.587
			C287.048,149.339,287.048,87.319,325.165,49.204z M186.907,462.866c-38.115,38.116-100.137,38.117-138.252,0
			c-38.117-38.116-38.117-100.136,0-138.252c38.115-38.115,100.135-38.118,138.252,0
			C225.023,362.731,225.023,424.75,186.907,462.866z M204.217,313.849c-1.044-1.128-2.106-2.247-3.202-3.343
			c-1.093-1.093-2.207-2.152-3.332-3.192c25.38-29.331,25.354-73.301-0.08-102.601c2.252-2.085,4.422-4.264,6.513-6.528
			c14.667,12.736,33.006,19.123,51.355,19.123c18.581,0,37.156-6.54,51.912-19.599c1.192,1.304,2.413,2.591,3.675,3.852
			c0.897,0.897,1.807,1.769,2.725,2.63c-26.053,29.487-26.063,74.201-0.03,103.7c-2.211,2.078-4.343,4.245-6.395,6.497
			C278.062,288.487,233.725,288.313,204.217,313.849z"/>
	</g>
</g>
<g>
	<g>
		<path d="M394.649,276.031h-0.358c-5.508,0-9.975,4.466-9.975,9.975s4.467,9.975,9.975,9.975h0.264c0.016,0,0.031,0,0.048,0
			c5.487,0,9.948-4.435,9.974-9.928C404.603,280.543,400.158,276.056,394.649,276.031z"/>
	</g>
</g>
<g>
	<g>
		<path d="M255.443,226.146c-16.501,0-29.926,13.425-29.926,29.926c0,16.501,13.425,29.926,29.926,29.926
			c16.501,0,29.926-13.425,29.926-29.926C285.37,239.571,271.945,226.146,255.443,226.146z M255.443,266.047
			c-5.5,0-9.975-4.475-9.975-9.975s4.475-9.975,9.975-9.975c5.5,0,9.975,4.475,9.975,9.975S260.944,266.047,255.443,266.047z"/>
	</g>
</g>
<g>
</g>
<g>
</g>
<g>
</g>
<g>
</g>
<g>
</g>
<g>
</g>
<g>
</g>
<g>
</g>
<g>
</g>
<g>
</g>
<g>
</g>
<g>
</g>
<g>
</g>
<g>
</g>
<g>
</g>
</svg>
